<svg width="113" height="90" viewBox="0 0 113 90" fill="none" xmlns="http://www.w3.org/2000/svg">
<path d="M109.534 42.6393C108.088 40.7448 108.178 40.5643 108.54 39.0307C108.811 37.5873 108.359 37.3166 107.907 37.2264C107.455 37.2264 107.907 38.6698 107.094 38.3992C106.281 38.0383 105.558 36.5047 105.648 35.4221C105.738 34.2494 105.738 33.7081 105.196 33.1668C104.654 32.6255 104.292 32.0842 104.744 31.5429C105.196 31.0016 105.377 30.8212 104.473 30.2799C103.569 29.7386 99.1413 27.5735 99.2317 26.5811C99.2317 25.4986 99.7739 25.2279 98.9606 24.8671C98.1473 24.5062 99.2317 23.6041 99.1413 21.89C99.051 20.176 97.0629 18.7325 97.7858 18.1912C98.5088 17.6499 99.1413 16.1163 98.9606 15.5751C98.9606 15.5751 98.2377 13.6806 97.5147 12.8686C96.7918 12.0567 96.2495 12.3273 95.6169 12.6882C94.9843 13.0491 94.3518 13.1393 94.8036 11.6056C95.2555 10.072 94.9843 8.08726 94.7132 7.36555C94.4421 6.64384 93.4481 3.30594 93.177 2.31358C92.9059 1.32123 92.3636 0.0582004 91.9118 1.3212C91.46 2.58419 90.3755 3.48636 90.5563 4.83957C90.737 6.10256 91.0081 6.55362 90.737 7.36555C90.4659 8.17747 89.2911 8.53834 89.1104 10.2524C88.9296 11.9665 88.4778 13.5001 88.297 15.0337C88.2067 16.5674 87.5741 17.9206 87.303 18.6423C87.0319 19.364 84.7726 23.965 82.423 22.7922C80.1638 21.6194 81.2482 21.6194 79.3504 20.7172C77.3623 19.8151 76.8201 19.5445 75.0127 18.101C73.2053 16.7478 70.4039 14.5827 71.4884 13.5001C72.4824 12.4175 74.4705 10.9741 73.5668 10.4328C72.6632 9.89156 73.0246 9.44049 74.109 8.62857C75.1935 7.90685 77.0008 4.20807 75.7357 5.29064C74.4705 6.46342 73.5668 6.10258 73.0246 5.65151C72.4824 5.20044 71.8498 6.19275 71.1269 5.38083C70.4039 4.65912 70.4943 4.74933 69.3195 4.92976C68.1447 5.11019 67.5121 4.56892 66.8795 3.93743C66.2469 3.30593 64.801 2.04291 64.0781 2.22334C63.3551 2.49398 63.8973 2.58424 64.3492 4.2983C64.8914 5.92216 64.1684 6.1928 62.361 6.10258C60.5536 6.01237 58.5655 6.46343 57.7522 8.1775C56.9389 9.89156 54.4085 9.98174 54.8604 11.6958C55.3122 13.5001 56.487 13.4099 55.8544 14.5827C55.1315 15.7555 53.5952 14.6729 53.1434 14.2218C52.6915 13.861 52.6916 13.8609 52.059 14.8533C51.336 15.8457 49.8901 17.0185 50.4323 15.6652C50.9745 14.312 51.1552 13.5903 50.4323 12.5979C49.6189 11.6056 48.5345 9.44047 48.173 10.523C47.8116 11.5154 47.4501 12.0567 46.7272 11.6958C46.0042 11.335 46.0042 11.335 45.7331 12.1469C45.462 12.8686 45.0102 12.9588 44.3776 13.2295C43.745 13.5001 43.022 13.861 43.2931 14.4925C43.5642 15.2142 43.2028 15.575 42.5702 15.4848C41.9376 15.3044 42.2087 15.3044 41.6665 15.8457C41.1243 16.387 40.8532 16.7478 41.2146 17.8304C41.4858 18.8228 41.0339 19.1836 40.5821 19.1836C40.1302 19.1836 39.4976 17.7402 38.7747 18.5521C38.0517 19.364 38.0517 19.5445 38.3228 20.5368C38.5036 21.5292 38.5035 21.7096 37.9613 22.2509C37.4191 22.7921 36.7865 21.89 36.6058 21.1683C36.425 20.4466 36.9673 17.65 36.1539 19.1836C35.3406 20.7173 33.8043 21.6194 33.714 22.6117C33.6236 23.6943 34.3465 24.2356 33.4429 24.7768C32.5392 25.3181 31.7258 25.8594 31.1836 27.1224C30.6414 28.3854 29.9185 28.9267 28.834 29.2875C27.7496 29.7386 23.4119 29.5582 22.96 30.4604C22.4178 31.3625 20.8815 31.3625 20.249 31.9038C19.6164 32.4451 17.9897 31.2723 16.8149 32.3548C15.6401 33.4374 14.7364 33.7983 12.2061 35.3319C9.67573 36.8655 9.13353 39.7524 8.77205 38.3992C8.41057 37.046 8.50096 35.783 7.77801 38.1286C7.05506 40.4741 7.59725 40.5643 6.96466 41.6469C6.33208 42.7294 5.15727 43.1805 5.88022 44.6239C6.60318 46.0674 8.13945 49.7661 7.23576 50.4878C6.33207 51.2096 3.53064 49.676 4.43434 51.2096C5.33803 52.7432 5.24767 55.8105 5.97062 57.2539C6.69358 58.6973 5.78984 61.0429 5.24763 62.1255C4.70541 63.208 6.06095 66.4557 6.15132 67.3579C6.24169 68.26 7.95872 70.786 4.52468 72.6805C1.09065 74.4848 -0.0841403 74.1239 2.4462 75.4771C4.97654 76.8303 5.88022 78.1836 8.5913 76.8303C10.6698 75.7478 15.8209 72.2294 19.0742 72.9512C22.3275 73.6729 24.6771 75.2967 25.8519 73.4924C27.0267 71.6881 29.2859 69.8839 30.4607 69.7035C31.6355 69.523 31.6355 68.1698 34.2562 68.7111C36.9673 69.2524 39.3168 66.9068 41.3953 66.6362C43.4738 66.4557 47.179 64.9221 48.3538 66.2753C49.5286 67.6285 49.5286 68.4405 51.0649 67.8992C52.6011 67.3579 52.8723 68.6209 53.2338 68.9817C53.5952 69.3426 54.4989 68.4404 54.5893 69.4328C54.6797 70.4251 52.8723 69.3426 54.5893 71.6881C56.3063 74.0337 56.487 73.7631 55.7641 75.0261C55.0411 76.2891 53.7759 76.7401 54.9507 76.6499C56.1255 76.5597 56.3063 74.6652 58.2041 73.8533C60.0115 73.0414 61.9996 72.049 62.361 71.5979C62.7225 71.2371 64.1684 68.26 64.2588 69.7937C64.3492 71.2371 63.3551 72.6805 62.7225 73.4924C62.0899 74.3043 61.0055 75.3869 60.4633 75.9282C59.9211 76.4695 59.5596 76.7401 58.927 77.2814C58.2944 77.8227 57.8426 78.2738 59.4692 77.7325C61.0959 77.1912 60.9151 77.0108 61.9092 76.0185C62.9032 75.0261 63.084 73.312 63.1744 74.8456C63.2647 76.4695 63.5358 77.3716 62.5418 78.0031C61.5477 78.6346 59.1981 80.1683 61.0055 79.5368C62.8129 78.9053 63.8973 76.1989 64.3492 78.7249C64.801 81.1607 64.4395 82.0628 63.6262 83.416C62.9033 84.7692 63.2647 85.5811 63.7166 86.1224C64.1684 86.6637 64.6203 87.9267 66.1566 87.5658C67.7832 87.205 68.4158 87.9267 69.3195 88.8288C70.2232 89.8212 70.3136 89.8212 71.4884 88.8288C72.6632 87.8364 74.832 84.8594 75.1935 86.1224C75.555 87.3854 75.8261 87.4756 76.4587 88.7386C77.0913 89.9114 77.4527 88.919 78.5372 88.3777C79.6216 87.8364 80.8867 86.393 83.7786 86.3028C86.6704 86.2126 88.297 86.2126 89.2911 84.1377C90.2851 82.0628 94.9844 77.3717 96.7918 75.1163C98.5992 72.861 101.31 71.1469 102.756 69.6132C104.292 68.0796 107.546 62.6667 109.172 60.1408C110.799 57.6148 110.889 54.9084 110.799 53.916C110.709 52.9237 112.335 51.2096 112.426 49.5857C112.606 48.1423 110.98 44.5338 109.534 42.6393Z" fill="white" stroke="#0070C1" stroke-width="0.2835" stroke-miterlimit="10"/>
</svg>
