<svg width="33" height="31" viewBox="0 0 33 31" fill="none" xmlns="http://www.w3.org/2000/svg">
<path fill-rule="evenodd" clip-rule="evenodd" d="M13.515 30.9957C15.2629 31.0521 16.5597 30.5449 17.18 30.2631C18.0257 29.8122 18.7023 29.3614 19.3225 28.6851C20.6757 27.2762 21.5215 25.5292 21.6343 23.5004C21.8034 21.1898 21.6343 18.3157 21.6343 16.0051C21.6343 13.5254 21.6343 10.9894 21.6343 8.50977C21.6343 6.81909 21.2396 5.18478 20.281 3.8886C20.1119 3.66317 20.2247 3.77589 20.1119 3.60682C19.1534 2.02886 16.7853 0.619961 14.8682 0.338183C13.064 0.0564039 6.35434 0.225473 3.7607 0.225473C2.80218 0.225473 0.885147 0.112761 0.0393953 0.281828C-0.186138 1.69072 0.603229 3.55046 1.22345 4.50851C1.56175 5.07207 2.01281 5.63563 2.46388 6.03012C5.28305 8.8479 8.55329 8.39706 12.6129 8.39706C13.3459 8.39706 13.515 8.22799 13.515 8.90426V25.5856C13.515 27.2762 13.4586 29.2487 13.515 30.9957Z" fill="black"/>
<path fill-rule="evenodd" clip-rule="evenodd" d="M23.1016 6.8754C23.1016 8.2843 23.7218 9.52412 24.5111 10.3131C27.6686 13.4127 32.8559 11.1021 32.7995 6.8754C32.7995 5.97371 32.574 5.24108 32.2357 4.56481C31.8974 3.88855 31.5027 3.55041 30.9389 2.9305C30.6569 2.64872 28.1197 0.0563558 28.0069 0C27.8942 0.0563558 26.7665 1.23983 26.541 1.46525C26.0335 1.97245 24.3984 3.49406 24.0601 4.05762C23.9473 4.22668 23.8909 4.33939 23.7782 4.50846C23.2707 5.18473 23.1016 6.03007 23.1016 6.8754Z" fill="white"/>
</svg>
