<svg width="1076" height="78" viewBox="0 0 1076 78" fill="none" xmlns="http://www.w3.org/2000/svg">
<path d="M250.364 8.39694V49.0794C250.364 51.4285 248.715 52.6031 245.416 52.6031H237.859C236.359 52.6031 235.22 52.3682 234.44 51.8983C233.66 51.3858 232.941 50.6383 232.281 49.656L215.097 26.4638C214.378 25.4814 213.658 24.3923 212.938 23.1964C212.278 22.0005 211.709 20.8473 211.229 19.7368H210.239C210.419 20.89 210.569 22.0645 210.689 23.2604C210.809 24.4136 210.869 25.5669 210.869 26.7201V52.6031H197.824V11.9206C197.824 9.57149 199.503 8.39694 202.862 8.39694H210.329C211.769 8.39694 212.848 8.6532 213.568 9.16574C214.348 9.63556 215.097 10.3617 215.817 11.344L232.461 33.8315C233.181 34.8138 233.93 35.903 234.71 37.0989C235.49 38.2948 236.239 39.5334 236.959 40.8148H238.039C237.859 39.5334 237.709 38.2948 237.589 37.0989C237.529 35.8603 237.499 34.643 237.499 33.4471L237.409 8.39694H250.364Z" fill="#00A8F0"/>
<path d="M283.263 7.56407C286.321 7.56407 289.65 7.6922 293.249 7.94847C296.847 8.16203 300.356 8.63185 303.775 9.35794L302.875 15.8287C300.236 15.786 297.147 15.7433 293.609 15.7006C290.07 15.6578 286.591 15.6365 283.173 15.6365C281.493 15.6365 280.054 15.6792 278.854 15.7646C277.715 15.8073 276.785 15.9782 276.065 16.2772C275.346 16.5334 274.836 16.9392 274.536 17.4944C274.236 18.0497 274.086 18.8185 274.086 19.8008C274.086 21.2957 274.566 22.3849 275.526 23.0682C276.545 23.7516 278.255 24.3709 280.654 24.9262L292.619 27.6811C297.597 28.877 301.046 30.5 302.965 32.5501C304.884 34.6003 305.844 37.2911 305.844 40.6226C305.844 43.1425 305.424 45.2354 304.585 46.9011C303.745 48.5668 302.425 49.8695 300.626 50.8092C298.827 51.7488 296.458 52.4109 293.519 52.7953C290.58 53.2224 286.981 53.4359 282.723 53.4359C280.684 53.4359 277.775 53.3292 273.996 53.1156C270.218 52.9448 265.899 52.4749 261.041 51.7061L261.941 44.7869C265.479 44.8296 268.538 44.8937 271.117 44.9791C273.756 45.0218 276.005 45.0645 277.865 45.1072C279.724 45.1072 281.343 45.1072 282.723 45.1072C285.122 45.1072 286.981 45.0005 288.301 44.7869C289.68 44.5734 290.64 44.1462 291.18 43.5056C291.719 42.8649 291.989 41.9466 291.989 40.7507C291.989 39.7256 291.779 38.9141 291.36 38.3162C291 37.6755 290.37 37.1843 289.47 36.8426C288.631 36.4582 287.461 36.1165 285.962 35.8175L273.366 32.7423C268.628 31.5037 265.269 29.8807 263.29 27.8733C261.311 25.8658 260.321 23.2177 260.321 19.929C260.321 17.3663 260.741 15.2948 261.581 13.7145C262.481 12.0915 263.83 10.8315 265.629 9.93454C267.489 9.03761 269.858 8.41829 272.737 8.0766C275.676 7.73491 279.184 7.56407 283.263 7.56407Z" fill="#00A8F0"/>
<path d="M340.205 7.5C345.123 7.5 349.292 7.8844 352.711 8.6532C356.129 9.3793 358.858 10.6179 360.897 12.3691C362.997 14.0775 364.526 16.4266 365.486 19.4164C366.445 22.3635 366.925 26.058 366.925 30.5C366.925 34.942 366.445 38.6578 365.486 41.6476C364.526 44.5947 362.997 46.9438 360.897 48.695C358.858 50.4034 356.129 51.6421 352.711 52.4109C349.292 53.1369 345.123 53.5 340.205 53.5C335.287 53.5 331.119 53.1369 327.7 52.4109C324.281 51.6421 321.522 50.4034 319.423 48.695C317.324 46.9438 315.795 44.5947 314.835 41.6476C313.875 38.6578 313.396 34.942 313.396 30.5C313.396 26.058 313.875 22.3635 314.835 19.4164C315.795 16.4266 317.324 14.0775 319.423 12.3691C321.522 10.6179 324.281 9.3793 327.7 8.6532C331.119 7.8844 335.287 7.5 340.205 7.5ZM340.205 15.2521C337.027 15.2521 334.537 15.7006 332.738 16.5975C330.999 17.4944 329.739 19.0534 328.96 21.2744C328.24 23.4526 327.88 26.5279 327.88 30.5C327.88 34.4294 328.24 37.5046 328.96 39.7256C329.739 41.9466 330.999 43.5056 332.738 44.4025C334.537 45.2994 337.027 45.7479 340.205 45.7479C343.324 45.7479 345.753 45.2994 347.493 44.4025C349.292 43.5056 350.551 41.9466 351.271 39.7256C352.051 37.5046 352.441 34.4294 352.441 30.5C352.441 26.5279 352.051 23.4526 351.271 21.2744C350.551 19.0534 349.292 17.4944 347.493 16.5975C345.753 15.7006 343.324 15.2521 340.205 15.2521Z" fill="#00A8F0"/>
<path d="M391.169 8.39694V52.6031H377.494V8.39694H391.169Z" fill="#00A8F0"/>
<path d="M417.258 8.39694V41.4554C417.258 42.5232 417.678 43.3347 418.518 43.89C419.357 44.4452 420.557 44.7228 422.116 44.7228H443.798L444.428 52.0905C440.169 52.4322 435.701 52.6244 431.023 52.6671C426.405 52.7526 421.786 52.7953 417.168 52.7953C412.67 52.7953 409.251 51.941 406.912 50.2326C404.633 48.4814 403.493 46.2604 403.493 43.5696V8.39694H417.258Z" fill="#00A8F0"/>
<path d="M552.732 7.5C557.65 7.5 561.818 7.8844 565.237 8.6532C568.656 9.3793 571.385 10.6179 573.424 12.3691C575.523 14.0775 577.053 16.4266 578.012 19.4164C578.972 22.3635 579.452 26.058 579.452 30.5C579.452 34.942 578.972 38.6578 578.012 41.6476C577.053 44.5947 575.523 46.9438 573.424 48.695C571.385 50.4034 568.656 51.6421 565.237 52.4109C561.818 53.1369 557.65 53.5 552.732 53.5C547.814 53.5 543.645 53.1369 540.227 52.4109C536.808 51.6421 534.049 50.4034 531.95 48.695C529.851 46.9438 528.321 44.5947 527.361 41.6476C526.402 38.6578 525.922 34.942 525.922 30.5C525.922 26.058 526.402 22.3635 527.361 19.4164C528.321 16.4266 529.851 14.0775 531.95 12.3691C534.049 10.6179 536.808 9.3793 540.227 8.6532C543.645 7.8844 547.814 7.5 552.732 7.5ZM552.732 15.2521C549.553 15.2521 547.064 15.7006 545.265 16.5975C543.525 17.4944 542.266 19.0534 541.486 21.2744C540.766 23.4526 540.406 26.5279 540.406 30.5C540.406 34.4294 540.766 37.5046 541.486 39.7256C542.266 41.9466 543.525 43.5056 545.265 44.4025C547.064 45.2994 549.553 45.7479 552.732 45.7479C555.851 45.7479 558.28 45.2994 560.019 44.4025C561.818 43.5056 563.078 41.9466 563.798 39.7256C564.577 37.5046 564.967 34.4294 564.967 30.5C564.967 26.5279 564.577 23.4526 563.798 21.2744C563.078 19.0534 561.818 17.4944 560.019 16.5975C558.28 15.7006 555.851 15.2521 552.732 15.2521Z" fill="#FAFBF7"/>
<path d="M603.695 8.39694V52.6031H590.021V8.39694H603.695Z" fill="#FAFBF7"/>
<path d="M629.785 8.39694V41.4554C629.785 42.5232 630.205 43.3347 631.044 43.89C631.884 44.4452 633.083 44.7228 634.643 44.7228H656.325L656.954 52.0905C652.696 52.4322 648.228 52.6244 643.549 52.6671C638.931 52.7526 634.313 52.7953 629.695 52.7953C625.196 52.7953 621.778 51.941 619.439 50.2326C617.159 48.4814 616.02 46.2604 616.02 43.5696V8.39694H629.785Z" fill="#FAFBF7"/>
<path d="M702.341 7.56407C705.4 7.56407 708.729 7.6922 712.328 7.94847C715.926 8.16203 719.435 8.63185 722.854 9.35794L721.954 15.8287C719.315 15.786 716.226 15.7433 712.687 15.7006C709.149 15.6578 705.67 15.6365 702.251 15.6365C700.572 15.6365 699.133 15.6792 697.933 15.7646C696.793 15.8073 695.864 15.9782 695.144 16.2772C694.424 16.5334 693.915 16.9392 693.615 17.4944C693.315 18.0497 693.165 18.8185 693.165 19.8008C693.165 21.2957 693.645 22.3849 694.604 23.0682C695.624 23.7516 697.333 24.3709 699.732 24.9262L711.698 27.6811C716.676 28.877 720.125 30.5 722.044 32.5501C723.963 34.6003 724.923 37.2911 724.923 40.6226C724.923 43.1425 724.503 45.2354 723.663 46.9011C722.824 48.5668 721.504 49.8695 719.705 50.8092C717.905 51.7488 715.536 52.4109 712.597 52.7953C709.659 53.2224 706.06 53.4359 701.802 53.4359C699.762 53.4359 696.854 53.3292 693.075 53.1156C689.296 52.9448 684.978 52.4749 680.12 51.7061L681.019 44.7869C684.558 44.8296 687.617 44.8937 690.196 44.9791C692.835 45.0218 695.084 45.0645 696.943 45.1072C698.803 45.1072 700.422 45.1072 701.802 45.1072C704.201 45.1072 706.06 45.0005 707.379 44.7869C708.759 44.5734 709.719 44.1462 710.258 43.5056C710.798 42.8649 711.068 41.9466 711.068 40.7507C711.068 39.7256 710.858 38.9141 710.438 38.3162C710.078 37.6755 709.449 37.1843 708.549 36.8426C707.709 36.4582 706.54 36.1165 705.04 35.8175L692.445 32.7423C687.707 31.5037 684.348 29.8807 682.369 27.8733C680.39 25.8658 679.4 23.2177 679.4 19.929C679.4 17.3663 679.82 15.2948 680.66 13.7145C681.559 12.0915 682.909 10.8315 684.708 9.93454C686.567 9.03761 688.936 8.41829 691.815 8.0766C694.754 7.73491 698.263 7.56407 702.341 7.56407Z" fill="#FAFBF7"/>
<path d="M894.84 8.39694L877.926 49.9123C877.627 50.6811 877.027 51.3217 876.127 51.8343C875.287 52.3468 874.268 52.6031 873.068 52.6031H860.473C859.214 52.6031 858.134 52.3468 857.234 51.8343C856.395 51.3217 855.855 50.6811 855.615 49.9123L838.611 8.39694H852.826L864.162 40.3022C864.402 41.1137 864.641 41.9466 864.881 42.8008C865.181 43.6123 865.421 44.4239 865.601 45.2354H867.94C868.12 44.4239 868.33 43.591 868.57 42.7368C868.87 41.8825 869.17 41.0497 869.47 40.2382L880.715 8.39694H894.84Z" fill="#FAFBF7"/>
<path d="M915.5 8.39694V52.6031H901.826V8.39694H915.5Z" fill="#FAFBF7"/>
<path d="M952.296 7.62814C955.235 7.62814 957.724 7.6922 959.763 7.82033C961.862 7.90576 963.781 8.05525 965.521 8.2688C967.26 8.48236 969.059 8.78134 970.919 9.16574L969.839 16.3412C967.86 16.2558 966.03 16.1917 964.351 16.149C962.732 16.1063 960.962 16.085 959.043 16.085C957.184 16.0422 954.935 16.0209 952.296 16.0209C949.237 16.0209 946.838 16.448 945.098 17.3022C943.419 18.1565 942.22 19.6513 941.5 21.7869C940.78 23.8798 940.42 26.7841 940.42 30.5C940.42 34.2159 940.78 37.1416 941.5 39.2772C942.22 41.37 943.419 42.8435 945.098 43.6978C946.838 44.552 949.237 44.9791 952.296 44.9791C956.434 44.9791 959.913 44.9364 962.732 44.851C965.551 44.7656 968.34 44.6161 971.099 44.4025L972.268 51.578C969.389 52.2187 966.45 52.6671 963.451 52.9234C960.453 53.2224 956.734 53.3719 952.296 53.3719C945.878 53.3719 940.72 52.6458 936.822 51.1936C932.983 49.6987 930.194 47.2855 928.455 43.954C926.775 40.6226 925.936 36.1379 925.936 30.5C925.936 24.8621 926.775 20.3774 928.455 17.046C930.194 13.7145 932.983 11.3227 936.822 9.87047C940.72 8.37558 945.878 7.62814 952.296 7.62814Z" fill="#FAFBF7"/>
<path d="M1053.42 7.56407C1056.48 7.56407 1059.81 7.6922 1063.4 7.94847C1067 8.16203 1070.51 8.63185 1073.93 9.35794L1073.03 15.8287C1070.39 15.786 1067.3 15.7433 1063.76 15.7006C1060.23 15.6578 1056.75 15.6365 1053.33 15.6365C1051.65 15.6365 1050.21 15.6792 1049.01 15.7646C1047.87 15.8073 1046.94 15.9782 1046.22 16.2772C1045.5 16.5334 1044.99 16.9392 1044.69 17.4944C1044.39 18.0497 1044.24 18.8185 1044.24 19.8008C1044.24 21.2957 1044.72 22.3849 1045.68 23.0682C1046.7 23.7516 1048.41 24.3709 1050.81 24.9262L1062.78 27.6811C1067.75 28.877 1071.2 30.5 1073.12 32.5501C1075.04 34.6003 1076 37.2911 1076 40.6226C1076 43.1425 1075.58 45.2354 1074.74 46.9011C1073.9 48.5668 1072.58 49.8695 1070.78 50.8092C1068.98 51.7488 1066.61 52.4109 1063.67 52.7953C1060.74 53.2224 1057.14 53.4359 1052.88 53.4359C1050.84 53.4359 1047.93 53.3292 1044.15 53.1156C1040.37 52.9448 1036.06 52.4749 1031.2 51.7061L1032.1 44.7869C1035.64 44.8296 1038.69 44.8937 1041.27 44.9791C1043.91 45.0218 1046.16 45.0645 1048.02 45.1072C1049.88 45.1072 1051.5 45.1072 1052.88 45.1072C1055.28 45.1072 1057.14 45.0005 1058.46 44.7869C1059.84 44.5734 1060.8 44.1462 1061.34 43.5056C1061.88 42.8649 1062.15 41.9466 1062.15 40.7507C1062.15 39.7256 1061.94 38.9141 1061.52 38.3162C1061.16 37.6755 1060.53 37.1843 1059.63 36.8426C1058.79 36.4582 1057.62 36.1165 1056.12 35.8175L1043.52 32.7423C1038.78 31.5037 1035.43 29.8807 1033.45 27.8733C1031.47 25.8658 1030.48 23.2177 1030.48 19.929C1030.48 17.3663 1030.9 15.2948 1031.74 13.7145C1032.64 12.0915 1033.99 10.8315 1035.79 9.93454C1037.64 9.03761 1040.01 8.41829 1042.89 8.0766C1045.83 7.73491 1049.34 7.56407 1053.42 7.56407Z" fill="#FAFBF7"/>
<path fill-rule="evenodd" clip-rule="evenodd" d="M117.954 8.97354C114.595 8.16202 110.187 7.75627 104.729 7.75627C101.011 7.75627 97.8318 7.77762 95.1928 7.82033C92.5538 7.82033 90.1247 7.86305 87.9055 7.94847C85.6864 8.03389 83.3173 8.18338 80.7982 8.39694V52.6031H94.3831V35.305H104.189C106.049 35.305 107.488 35.5826 108.508 36.1379C109.587 36.6931 110.397 37.6968 110.937 39.149L115.705 52.6031H130.189L124.792 38.8287C124.312 37.2911 123.562 36.0738 122.542 35.1769C121.523 34.2372 120.413 33.5325 119.214 33.0627C118.074 32.5928 116.964 32.2939 115.885 32.1657V31.8454C118.884 31.5891 121.253 30.9912 122.992 30.0515C124.732 29.1119 125.961 27.8733 126.681 26.3357C127.46 24.7553 127.85 22.9401 127.85 20.89C127.85 17.5158 127.041 14.889 125.421 13.0098C123.862 11.0877 121.373 9.74234 117.954 8.97354ZM94.3831 27.9373H104.459C106.858 27.9373 108.748 27.7665 110.127 27.4248C111.567 27.0404 112.556 26.3784 113.096 25.4387C113.696 24.4991 113.996 23.1964 113.996 21.5306C113.996 19.8222 113.696 18.5195 113.096 17.6226C112.556 16.6829 111.567 16.0422 110.127 15.7006C108.748 15.3162 106.858 15.124 104.459 15.124C100.717 15.124 97.3587 15.1334 94.3831 15.1522V8.39694H80.7982L82.1477 15.3802C83.5872 15.2948 86.2562 15.2307 90.1547 15.188C91.4658 15.1737 92.8752 15.1617 94.3831 15.1522V27.9373Z" fill="#00A8F0"/>
<path d="M82.1477 15.3802C83.5872 15.2948 86.2562 15.2307 90.1547 15.188C91.4658 15.1737 92.8752 15.1617 94.3831 15.1522V8.39694H80.7982L82.1477 15.3802Z" fill="#00A8F0"/>
<path fill-rule="evenodd" clip-rule="evenodd" d="M168.736 8.39694C169.876 8.39694 170.865 8.63185 171.705 9.10167C172.605 9.5715 173.205 10.1908 173.504 10.9596L191.498 52.6031H177.463L172.909 40.9429H178.273V33.5752H170.032L164.778 20.1212L164.058 17.9429C163.818 17.1741 163.608 16.448 163.428 15.7646H160.999C160.819 16.448 160.609 17.1741 160.369 17.9429C160.189 18.669 159.95 19.3951 159.65 20.1212L154.396 33.5752H146.065V40.9429H151.518L146.965 52.6031H132.84L150.923 10.9596C151.223 10.1908 151.793 9.5715 152.632 9.10167C153.532 8.63185 154.552 8.39694 155.691 8.39694H168.736ZM151.518 40.9429L154.396 33.5752H170.032L172.909 40.9429H151.518Z" fill="#00A8F0"/>
<path d="M178.273 40.9429V33.5752H170.032L172.909 40.9429H178.273Z" fill="#00A8F0"/>
<path d="M146.065 33.5752V40.9429H151.518L154.396 33.5752H146.065Z" fill="#00A8F0"/>
<path fill-rule="evenodd" clip-rule="evenodd" d="M464.378 40.9429H485.769L482.891 33.5752H467.255L464.378 40.9429Z" fill="#00A8F0"/>
<path d="M491.132 40.9429V33.5752H482.891L485.769 40.9429H491.132Z" fill="#00A8F0"/>
<path d="M484.565 9.10167C483.725 8.63185 482.735 8.39694 481.596 8.39694H468.551C467.411 8.39694 466.391 8.63185 465.492 9.10167C464.652 9.5715 464.082 10.1908 463.782 10.9596L445.699 52.6031H459.824L464.378 40.9429H458.924V33.5752H467.255L472.509 20.1212C472.809 19.3951 473.049 18.669 473.229 17.9429C473.469 17.1741 473.679 16.448 473.859 15.7646H476.288C476.468 16.448 476.678 17.1741 476.917 17.9429L477.637 20.1212L482.891 33.5752H491.132V40.9429H485.769L490.322 52.6031H504.357L486.364 10.9596C486.064 10.1908 485.464 9.5715 484.565 9.10167Z" fill="#00A8F0"/>
<path d="M458.924 33.5752V40.9429H464.378L467.255 33.5752H458.924Z" fill="#00A8F0"/>
<path fill-rule="evenodd" clip-rule="evenodd" d="M823.711 8.97354C820.352 8.16202 815.944 7.75627 810.486 7.75627C806.767 7.75627 803.588 7.77762 800.949 7.82033C798.31 7.82033 795.881 7.86305 793.662 7.94847C791.443 8.03389 789.074 8.18338 786.555 8.39694V52.6031H800.14V35.305H809.946C811.805 35.305 813.245 35.5826 814.264 36.1379C815.344 36.6931 816.154 37.6968 816.693 39.149L821.462 52.6031H835.946L830.548 38.8287C830.068 37.2911 829.319 36.0738 828.299 35.1769C827.279 34.2372 826.17 33.5325 824.97 33.0627C823.831 32.5928 822.721 32.2939 821.641 32.1657V31.8454C824.64 31.5891 827.009 30.9912 828.749 30.0515C830.488 29.1119 831.718 27.8733 832.437 26.3357C833.217 24.7553 833.607 22.9401 833.607 20.89C833.607 17.5158 832.797 14.889 831.178 13.0098C829.619 11.0877 827.13 9.74234 823.711 8.97354ZM799.6 35.305H800.14V27.9373H810.216C812.615 27.9373 814.504 27.7665 815.884 27.4248C817.323 27.0404 818.313 26.3784 818.853 25.4387C819.452 24.4991 819.752 23.1964 819.752 21.5306C819.752 19.8222 819.452 18.5195 818.853 17.6226C818.313 16.6829 817.323 16.0422 815.884 15.7006C814.504 15.3162 812.615 15.124 810.216 15.124C806.474 15.124 803.115 15.1334 800.14 15.1522V27.9373H787.814L787.545 35.0487C789.044 35.0915 790.723 35.1342 792.583 35.1769C794.502 35.2196 796.841 35.2623 799.6 35.305Z" fill="#FAFBF7"/>
<path fill-rule="evenodd" clip-rule="evenodd" d="M757.485 8.2688C754.066 8.22609 750.677 8.20474 747.319 8.20474C743.36 8.20474 740.151 9.01625 737.692 10.6393C735.293 12.2623 734.094 14.4192 734.094 17.11V43.89C734.094 46.5381 735.293 48.695 737.692 50.3607C740.151 51.9837 743.36 52.7953 747.319 52.7953C750.677 52.7953 754.066 52.7739 757.485 52.7312C760.904 52.7312 764.262 52.6885 767.561 52.6031C770.86 52.4749 773.948 52.3254 776.827 52.1546L776.198 45.0432H752.357C750.857 45.0432 749.718 44.7656 748.938 44.2103C748.218 43.6551 747.858 42.8435 747.858 41.7758V33.0627H772.869V26.1435H747.858V19.2242C747.858 18.1565 748.218 17.3449 748.938 16.7897C749.718 16.2344 750.857 15.9568 752.357 15.9568H776.198L776.827 8.84541C773.948 8.63185 770.86 8.48236 767.561 8.39694C764.262 8.31151 760.904 8.2688 757.485 8.2688ZM747.858 26.1435H735.713V33.0627H747.858V26.1435Z" fill="#FAFBF7"/>
<path d="M792.583 35.1769C794.502 35.2196 796.841 35.2623 799.6 35.305H800.14V27.9373H787.814L787.545 35.0487C789.044 35.0915 790.723 35.1342 792.583 35.1769Z" fill="#FAFBF7"/>
<path d="M735.713 26.1435V33.0627H747.858V26.1435H735.713Z" fill="#FAFBF7"/>
<path fill-rule="evenodd" clip-rule="evenodd" d="M1003.84 8.2688C1000.42 8.22609 997.029 8.20474 993.67 8.20474C989.712 8.20474 986.503 9.01625 984.044 10.6393C981.645 12.2623 980.445 14.4192 980.445 17.11V43.89C980.445 46.5381 981.645 48.695 984.044 50.3607C986.503 51.9837 989.712 52.7953 993.67 52.7953C997.029 52.7953 1000.42 52.7739 1003.84 52.7312C1007.26 52.7312 1010.61 52.6885 1013.91 52.6031C1017.21 52.4749 1020.3 52.3254 1023.18 52.1546L1022.55 45.0432H998.708C997.209 45.0432 996.069 44.7656 995.29 44.2103C994.57 43.6551 994.21 42.8435 994.21 41.7758V33.0627H1019.22V26.1435H994.21V19.2242C994.21 18.1565 994.57 17.3449 995.29 16.7897C996.069 16.2344 997.209 15.9568 998.708 15.9568H1022.55L1023.18 8.84541C1020.3 8.63185 1017.21 8.48236 1013.91 8.39694C1010.61 8.31151 1007.26 8.2688 1003.84 8.2688ZM994.21 26.1435H982.065V33.0627H994.21V26.1435Z" fill="#FAFBF7"/>
<path d="M982.065 26.1435V33.0627H994.21V26.1435H982.065Z" fill="#FAFBF7"/>
<path fill-rule="evenodd" clip-rule="evenodd" d="M32.1408 72.9898C36.2975 73.1225 39.3815 71.9282 40.8565 71.2646C42.8678 70.2029 44.4769 69.1413 45.9518 67.5488C49.17 64.231 51.1813 60.1171 51.4495 55.3396C51.8517 49.8985 51.4495 43.1304 51.4495 37.6893C51.4495 31.8501 51.4495 25.8782 51.4495 20.039C51.4495 16.0578 50.5108 12.2092 48.2313 9.15693C47.8291 8.6261 48.0972 8.89152 47.8291 8.49339C45.5496 4.77755 39.9179 1.45982 35.3589 0.796281C31.0681 0.132737 15.1116 0.530868 8.94351 0.530868C6.66401 0.530868 2.10501 0.265448 0.0936879 0.663574C-0.442665 3.98129 1.43457 8.36068 2.90954 10.6167C3.71407 11.9438 4.78677 13.2709 5.85947 14.1999C12.5639 20.8353 20.341 19.7736 29.9953 19.7736C31.7385 19.7736 32.1408 19.3755 32.1408 20.968V60.2498C32.1408 64.231 32.0067 68.8759 32.1408 72.9898Z" fill="#FAFBF7"/>
<path fill-rule="evenodd" clip-rule="evenodd" d="M54.9375 16.1905C54.9375 19.5082 56.4125 22.4278 58.2897 24.2857C65.7986 31.5847 78.1348 26.1436 78.0007 16.1905C78.0007 14.0671 77.4643 12.3419 76.6598 10.7494C75.8553 9.1569 74.9167 8.36065 73.5758 6.90086C72.9053 6.23732 66.8713 0.132709 66.6032 0C66.335 0.132709 63.6532 2.91959 63.1169 3.45042C61.9101 4.6448 58.0215 8.22795 57.217 9.55503C56.9488 9.95316 56.8147 10.2186 56.5466 10.6167C55.3398 12.2092 54.9375 14.1998 54.9375 16.1905Z" fill="#00A8F0"/>
</svg>
