<svg width="25" height="25" viewBox="0 0 25 25" fill="none" xmlns="http://www.w3.org/2000/svg">
<rect width="25" height="25" rx="12.5" fill="#0070C1"/>
<path d="M19.1998 16.6002V9.4002C19.1998 8.7362 18.6638 8.2002 17.9998 8.2002H6.7918C6.1278 8.2002 5.5918 8.7362 5.5918 9.4002V16.6002C5.5918 17.2642 6.1278 17.8002 6.7918 17.8002H17.9998C18.6638 17.8002 19.1998 17.2642 19.1998 16.6002ZM18.1518 9.3122C18.4158 9.5762 18.2718 9.8482 18.1278 9.9842L14.8798 12.9602L17.9998 16.2082C18.0958 16.3202 18.1598 16.4962 18.0478 16.6162C17.9438 16.7442 17.7038 16.7362 17.5998 16.6562L14.1038 13.6722L12.3918 15.2322L10.6878 13.6722L7.1918 16.6562C7.0878 16.7362 6.8478 16.7442 6.7438 16.6162C6.6318 16.4962 6.6958 16.3202 6.7918 16.2082L9.9118 12.9602L6.6638 9.9842C6.5198 9.8482 6.3758 9.5762 6.6398 9.3122C6.9038 9.0482 7.1758 9.1762 7.3998 9.3682L12.3918 13.4002L17.3918 9.3682C17.6158 9.1762 17.8878 9.0482 18.1518 9.3122Z" fill="white"/>
</svg>
