<svg width="342" height="116" viewBox="0 0 342 116" fill="none" xmlns="http://www.w3.org/2000/svg">
<path d="M338.045 33.0491C335.967 31.9665 335.605 31.7861 339.31 31.7861C343.016 31.7861 332.894 28.3579 329.731 28.1775C326.478 27.9069 328.556 28.3579 330.364 29.6209C332.171 30.8839 327.111 28.8992 325.303 28.0873C323.496 27.3656 321.237 26.5536 318.977 25.9221C316.718 25.2906 307.229 22.7647 304.338 21.7723C301.446 20.78 295.572 20.5093 293.132 20.9604C290.692 21.4114 289.788 19.968 286.806 20.2387C283.824 20.5093 287.348 21.3212 289.336 23.5766C291.324 25.8319 286.444 23.5766 285.541 22.5842C284.637 21.5919 283.01 22.0429 282.107 20.9604C281.203 19.7876 280.751 19.968 279.847 21.3212C278.944 22.6745 275.329 21.9527 274.335 21.231C273.341 20.5093 267.557 21.3212 265.388 21.3212C263.129 21.4115 257.978 17.8029 255.9 17.5322C253.821 17.2616 246.049 18.254 244.152 18.254C242.254 18.254 243.248 16.991 241.44 16.7203C239.633 16.4497 239.452 17.5323 238.82 16.8105C238.187 16.0888 234.663 16.0888 235.295 15.3671C235.928 14.6454 232.313 14.1041 230.325 14.5552C228.337 14.9161 229.964 15.3671 228.427 15.9084C226.891 16.3595 226.349 15.6378 227.253 15.0063C228.066 14.2846 223.728 14.7356 224.903 13.7432C226.078 12.8411 218.758 12.8411 216.137 13.7432C213.426 14.6454 215.685 14.465 218.306 15.728C220.927 16.991 218.848 16.4497 217.854 16.8105C216.86 17.0812 215.233 16.0888 215.866 16.8105C216.499 17.442 213.516 16.9008 212.522 16.6301C211.619 16.2693 210.263 16.0888 209.269 17.0812C208.365 17.9833 207.733 16.5399 206.648 16.7203C205.564 16.9008 204.299 16.2693 202.762 15.9084C201.226 15.5476 203.305 16.8105 203.485 17.8931C203.756 18.9757 196.437 16.6301 194.539 15.6377C192.641 14.6454 192.189 14.5552 191.105 12.9313C190.02 11.3075 187.49 11.7586 186.044 11.6683C184.598 11.5781 184.598 10.5858 181.616 11.0368C178.634 11.4879 179.989 11.1271 181.255 12.1194C182.61 13.1118 179.899 13.3824 178.543 13.2922C177.188 13.202 171.766 13.1117 171.314 11.939C170.772 10.7662 165.44 10.7662 164.988 10.8564C164.536 10.9466 162.367 10.9466 162.277 11.939C162.187 12.9313 161.102 12.1194 160.289 11.3075C159.566 10.4956 159.204 10.9466 158.572 11.3977C157.939 11.8488 158.12 11.2173 157.126 10.9466C156.132 10.676 156.041 10.8564 153.692 11.5781C151.342 12.2998 150.8 12.2096 148.993 12.7509C147.185 13.2922 147.276 13.9237 146.733 13.5628C146.191 13.202 147.908 11.7586 149.716 10.7662C151.523 9.77384 153.24 8.7815 154.867 7.78914C156.493 6.79679 152.517 5.44357 151.704 4.90228C150.981 4.361 149.896 3.7295 148.631 3.45886C147.366 3.18821 145.378 3.81972 143.48 3.63929C141.582 3.45887 141.944 3.36864 141.582 3.90993C141.131 4.45121 137.968 4.54144 139.414 3.72951C140.769 2.82737 134.985 3.54909 133.178 3.27844C131.371 3.0078 134.443 2.55673 135.979 1.38394C137.425 0.211161 131.1 1.1133 129.563 1.74479C127.937 2.37629 128.75 3.09799 130.467 3.36864C132.184 3.54906 128.569 4.09036 127.756 4.54143C126.943 4.9925 128.117 4.90228 127.575 5.26314C127.033 5.53378 125.226 6.16529 123.328 5.89464C121.43 5.624 120.165 4.63165 119.352 4.63165C118.538 4.63165 117.183 5.26314 115.646 6.16528C114.11 7.15763 109.501 7.06743 108.959 7.69893C108.507 8.33042 106.881 8.51084 109.23 10.2249C111.489 11.939 107.694 10.4956 106.519 10.4956C105.254 10.4956 102.452 11.2173 100.012 11.3075C97.5725 11.3977 98.1147 11.0368 98.2955 11.6683C98.4762 12.2998 100.284 13.202 101.639 13.9237C102.995 14.5552 104.169 14.6454 105.706 15.9084C107.242 17.1714 105.073 16.4497 103.356 16.4497C101.639 16.4497 102.001 16.0888 100.374 14.8258C98.7473 13.653 97.0303 14.0139 95.2229 13.9237C93.4155 13.8335 93.9577 14.1041 94.9518 14.6454C95.9459 15.1867 96.3073 15.1867 95.2229 15.3671C94.1385 15.5475 94.2289 15.3671 92.4215 15.5475C90.6141 15.728 95.2229 16.4497 97.6629 16.9007C100.103 17.3518 99.8318 17.8931 99.3799 18.1638C98.9281 18.4344 97.211 18.0735 95.4036 17.8029C93.5963 17.6225 92.9637 17.2616 91.6081 17.1714C90.343 17.0812 90.4334 16.6301 90.7948 15.4573C91.1563 14.2846 90.0718 13.5628 89.1681 12.7509C88.2645 11.939 88.6259 13.2922 89.8007 14.6454C90.8852 15.9986 88.626 14.8258 86.9993 15.9986C85.3727 17.1714 88.9874 17.442 90.5237 18.705C92.06 19.8778 90.5237 20.0582 90.6141 21.5017C90.7045 22.8549 91.7889 22.5842 93.5059 22.3136C95.2229 22.1332 97.0303 22.2234 99.4703 22.8549C102.001 23.4864 101.278 24.2983 101.639 25.7417C101.91 27.0949 102.724 26.4634 104.169 26.7341C105.615 27.0047 105.435 27.1851 104.35 27.4558C103.266 27.7264 102.995 27.6362 101.187 27.2754C99.3799 26.9145 100.374 26.3732 100.103 25.1102C99.8318 23.8472 97.7532 23.4864 96.1266 23.5766C94.4999 23.6668 95.1326 24.0276 94.6807 24.5689C94.2289 25.1102 95.0422 25.5613 95.8555 27.0047C96.7592 28.4481 95.3133 27.8166 93.5963 29.2601C91.9696 30.6133 92.4215 30.072 90.343 30.4328C88.2645 30.7937 87.9933 30.8839 86.0052 30.072C84.0171 29.3503 85.1919 28.6286 86.6378 28.9894C88.0837 29.3503 90.7948 27.1852 91.2467 25.2004C91.7889 23.1255 89.8911 23.8472 89.0778 22.4038C88.3548 21.0506 87.6319 20.9604 87.8126 19.3365C87.9933 17.7127 87.0897 18.254 85.1015 17.2616C83.1134 16.2693 84.3786 16.0888 85.3727 14.465C86.3667 12.8411 80.4024 12.4803 77.9624 12.9313C75.5224 13.3824 77.6009 15.5475 75.7031 16.9007C73.715 18.254 74.9802 18.1638 76.8779 18.9757C78.6853 19.6974 76.155 20.5995 77.149 21.0506C78.1431 21.5017 79.3179 22.0429 82.3904 23.2157C85.463 24.3885 82.9327 25.7417 80.7638 24.8396C78.6853 23.9375 75.2513 22.9451 72.9017 22.494C70.4617 21.9527 68.2025 21.5919 66.3047 21.1408C64.3166 20.6897 64.1359 21.5017 64.7685 22.1332C65.4914 22.7647 66.124 23.2157 65.4914 23.5766C64.9492 23.9375 64.6781 24.2081 64.4973 25.3809C64.3166 26.5537 63.2322 25.3809 62.9611 24.2983C62.5996 23.2157 60.5211 23.9375 59.9789 23.9375C59.3463 24.0277 57.3582 24.4787 56.0026 24.6592C54.6471 24.8396 54.2856 25.5613 52.8397 25.6515C51.3938 25.7417 50.9419 25.5613 51.4842 24.5689C52.1167 23.4864 50.942 23.3059 50.3094 24.2081C49.6768 25.1102 50.3094 25.3809 49.0442 25.2004C47.779 25.02 47.1464 24.5689 45.5198 25.2004C43.8931 25.8319 42.1761 26.9145 41.2724 27.4558C40.3687 27.9971 41.0013 28.809 40.2784 29.3503C39.5554 29.8916 39.1036 29.3503 37.3865 28.9894C35.6695 28.6286 36.2117 28.4481 35.2177 27.4558C34.2236 26.4634 35.7599 26.283 37.3865 25.7417C39.0132 25.2004 33.3199 24.1179 31.6029 24.3885C29.7955 24.7494 32.6874 26.0124 32.3259 27.0949C31.9644 28.1775 33.5007 28.2677 34.5851 28.9894C35.6695 29.7112 34.1333 30.072 35.037 30.5231C35.9407 31.0643 35.1273 32.1469 34.4044 31.8763C33.6814 31.6958 32.597 30.8839 31.9644 30.3427C31.3318 29.8014 28.9822 30.8839 27.717 31.4252C26.4519 31.9665 26.4519 31.9665 26 32.9589C25.5482 34.0414 27.8074 34.1316 28.0785 35.4848C28.3496 36.838 26.1807 34.8534 25.7289 34.8534C25.2771 34.8534 24.3734 34.8533 23.1082 34.4925C21.843 34.0414 22.2045 33.7708 19.8549 33.9512C17.5053 34.1316 20.5779 35.0338 22.3853 35.7555C24.283 36.4772 22.2949 37.3793 19.9453 37.1087C17.5957 36.8381 18.0475 36.4772 16.7823 35.9359C15.4268 35.3946 16.0594 34.9435 15.2461 34.0414C14.3424 33.2295 14.3424 33.2295 14.6135 32.5078C14.975 31.7861 15.0653 31.335 13.2579 30.7937C11.3602 30.2524 9.73355 29.7111 8.37801 28.3579C7.02247 27.0047 11.4505 28.4481 12.535 28.7188C13.529 29.0796 16.1498 29.3503 18.1379 29.8014C20.0356 30.2524 24.0119 31.2448 26.6326 29.8916C29.2533 28.5384 25.1867 26.283 23.8311 25.8319C22.566 25.3809 19.6742 24.2983 18.1379 23.757C16.6016 23.2157 15.2461 22.5842 14.3424 22.5842C13.4387 22.5842 12.1735 22.4038 11.0891 22.5842C10.0047 22.7647 10.095 23.5766 9.2817 23.4864C8.55875 23.4864 9.19131 22.6745 9.37205 22.1332C9.55279 21.5017 8.82985 21.5919 7.83579 20.9604C6.84173 20.3289 6.66098 21.0506 5.39581 21.4114C4.58248 21.6821 4.221 21.5919 3.94989 21.5017C3.58841 21.9527 3.13658 22.4038 2.32325 22.6745C0.696607 23.306 -0.297461 25.1102 1.78103 25.6515C3.85953 26.1928 4.13065 26.5536 3.4077 27.8166C2.68474 29.0796 4.76323 30.072 5.03433 30.7035C5.30544 31.335 5.39581 31.6056 5.03433 32.6882C4.67286 33.7708 6.02841 35.3044 6.57062 35.6653C7.11284 36.0261 6.66099 36.6576 6.57062 37.2891C6.48025 37.9206 9.10096 38.913 9.64318 39.6347C10.1854 40.3564 10.7276 40.8075 9.01058 42.0705C7.83578 42.9726 6.11877 44.6867 4.58249 45.9497C5.39581 46.3105 6.29952 47.0322 7.02247 47.5735C8.19727 48.4757 6.66098 48.205 5.03433 48.2952C3.58842 48.3855 3.85953 48.9267 3.58842 49.2876C3.85953 49.6485 4.13065 49.8289 3.76917 50.2799C3.22695 51.0016 2.23288 51.2723 2.68473 52.3549C3.0462 53.4374 3.85953 54.52 3.58842 54.8809C3.40768 55.2417 4.04027 57.2264 4.58249 57.9481C5.1247 58.5796 5.21506 59.4818 5.30543 59.572C5.48617 59.6622 8.10689 59.3013 8.19726 59.7524C8.28763 60.2035 8.64911 60.4741 9.5528 60.1133C10.4565 59.7524 11.812 60.4741 11.812 61.286C11.812 62.098 12.1735 63.9023 13.3483 64.8044C14.5231 65.7967 17.1438 67.15 16.6016 67.6913C15.969 68.3227 13.1676 67.9619 13.7098 68.864C14.0713 69.4955 14.7039 70.4879 15.0653 71.2096C15.2461 71.2096 15.4268 71.2096 15.5172 71.2096C16.1498 71.1194 17.8668 70.3977 18.8608 70.4879C19.7645 70.5781 21.5719 71.8411 21.3008 72.3824C20.9393 72.9236 20.849 73.3747 21.7527 73.8258C22.6564 74.2769 24.283 72.8334 24.283 74.7279C24.283 76.6224 26.5422 76.9833 27.5363 76.7127C28.5304 76.442 29.6148 76.3518 30.2474 76.9833C30.88 77.6148 32.0548 78.3365 33.7718 78.1561C35.4888 77.9757 36.6636 79.0582 36.6636 79.8701C36.6636 80.6821 35.3984 80.5919 35.9407 81.1331C36.4829 81.6744 36.5732 81.9451 36.2118 82.3059C35.8503 82.6668 37.0251 83.0276 36.8443 83.6591C36.6636 84.2906 34.0429 84.7417 33.3199 85.283C32.8681 85.5536 32.6873 86.0047 32.597 86.3655C32.7777 86.2753 33.0488 86.2753 33.2296 86.1851C34.2236 85.9145 36.5732 85.4634 35.5792 86.1851C34.6755 86.9068 33.6814 87.1775 33.0488 87.5383C32.3259 87.8992 29.9763 87.5383 31.7837 88.4405C33.591 89.3426 36.031 88.5307 34.2236 89.7937C32.4162 91.0567 32.6873 91.3273 31.5125 91.8686C30.3377 92.3197 28.6207 92.1393 30.7896 93.4022C32.9585 94.6652 34.8562 96.1087 36.031 96.4695C36.6636 96.6499 38.0191 97.1912 39.1036 97.7325C40.188 97.6423 41.2724 97.6423 42.5376 98.0934C45.3391 98.9955 46.6946 100.439 49.0442 100.349C51.3938 100.258 53.4723 100.619 54.376 101.702C55.2797 102.784 56.7256 103.596 58.1715 104.318C59.4367 104.95 60.0693 104.499 61.1537 103.687C60.9729 103.416 60.7922 103.145 60.6115 102.965C59.527 101.973 57.81 99.8976 57.9004 98.9955C57.9908 98.0031 57.1774 96.9206 56.0026 96.1087C54.8278 95.2967 54.5567 94.3946 55.1893 93.7631C55.8219 93.1316 56.2737 92.3197 55.9123 91.3273C55.5508 90.335 57.6293 90.8762 58.4426 90.4252C58.8041 90.2447 59.4367 89.523 60.0692 88.6209C59.4367 88.8013 58.9848 88.8915 58.7137 88.8915C57.9907 88.6209 57.4485 87.8992 58.2619 87.809C59.0752 87.7188 57.7196 86.0047 56.9063 85.0123C56.093 84.02 55.8219 84.2906 54.6471 85.1025C53.3819 85.9145 53.8338 84.1102 52.7493 83.5689C51.6649 82.9374 51.8456 82.1255 52.8397 81.2234C53.8338 80.4114 53.653 80.4114 52.659 79.5995C51.5745 78.7876 52.659 78.3365 53.1108 76.8931C53.653 75.4496 54.376 77.2539 55.4604 78.1561C56.5448 79.1484 56.9967 78.2463 56.4545 77.1637C55.9123 76.0812 56.5449 75.9909 57.5389 75.2692C58.533 74.5475 59.0752 73.4649 60.1596 72.3824C61.244 71.2096 61.967 72.9237 63.0514 73.5552C64.0455 74.1867 61.8766 71.8411 64.5877 72.7432C67.2988 73.5552 68.0217 73.4649 70.1906 74.7279C72.2691 75.9007 72.3595 76.1714 73.8054 75.5399C75.2513 74.9084 74.6187 74.0062 75.7031 74.7279C76.6972 75.4496 78.2335 74.8181 78.8661 74.7279C79.589 74.7279 80.4927 75.9909 81.4868 76.3518C82.3904 76.8029 83.1134 76.3518 83.6556 75.6301C84.1979 74.9986 85.6438 76.6224 86.8186 75.4497C87.9934 74.1867 84.8304 73.0139 82.7519 72.5628C80.6735 72.1117 84.469 71.4802 84.0171 70.6683C83.4749 69.9466 83.2941 69.4955 84.6497 68.7738C86.0052 68.0521 85.463 68.3227 83.4749 67.0597C81.4868 65.7967 85.463 65.9772 87.8126 65.4359C90.1622 64.8946 91.7889 65.075 92.2407 63.812C92.6926 62.549 94.8615 63.7218 96.217 63.361C97.5725 63.0001 98.2955 62.4588 99.1992 61.4665C100.193 60.4741 102.543 61.8273 103.718 61.4665C104.892 61.1056 105.525 62.7295 105.977 64.3533C106.338 65.9772 106.248 65.6163 108.326 65.2555C110.405 64.8946 109.863 64.8946 110.947 65.4359C112.032 66.0674 112.483 66.338 113.116 67.0597C113.839 67.7815 116.369 65.5261 117.544 64.7142C118.719 63.9925 119.532 64.1729 119.532 65.0751C119.532 65.887 120.346 66.1576 122.514 67.0597C124.593 67.9619 126.491 70.5781 129.202 73.1943C131.913 75.9007 131.822 75.5399 132.907 73.916C133.991 72.2922 133.811 73.7356 135.076 74.8182C136.341 75.9007 137.606 75.2692 139.865 74.9084C142.125 74.4573 142.757 76.8028 144.384 78.2463C146.01 79.6897 147.456 79.1484 148.631 78.4267C149.625 77.7952 150.348 79.5995 151.252 80.6821C151.433 80.5919 151.523 80.5016 151.523 80.5016C151.523 80.5016 151.884 80.6821 152.336 80.8625C152.879 78.7876 155.318 78.6974 156.493 77.5246C157.849 76.1714 161.464 75.0888 164.355 75.8105C167.247 76.5322 168.061 78.2463 169.416 77.5246C170.772 76.8029 172.85 77.9756 174.748 78.2463C176.646 78.5169 176.375 76.8931 175.652 75.8105C174.929 74.7279 173.754 73.7356 174.206 72.202C174.658 70.6683 177.278 72.1117 179.086 72.9237C180.893 73.8258 184.327 73.6454 186.315 75.4497C188.394 77.2539 190.743 77.705 193.545 76.442C196.346 75.179 198.786 77.4344 200.142 78.6072C201.497 79.6897 205.745 80.4114 207.371 79.9604C208.998 79.5093 209.811 79.5995 211.347 79.8701C212.884 80.1408 213.336 79.3288 213.516 78.6973C213.607 78.0658 215.685 76.5322 217.041 77.5246C218.396 78.4267 220.204 77.8854 221.921 78.6973C221.921 78.6973 223.005 77.9757 224.813 79.0582C226.62 80.1408 226.168 78.3365 227.253 77.6148C228.337 76.8931 226.53 76.2616 226.53 74.9084C226.62 73.5552 226.891 72.3824 227.072 71.1194C227.162 69.9466 224.632 70.127 224.09 69.3151C223.547 68.5934 227.524 67.5108 230.144 67.15C232.765 66.7891 233.036 67.9619 235.115 68.1423C237.193 68.2325 243.248 72.8334 244.694 74.6377C246.049 76.442 248.76 79.0582 251.2 79.6897C253.64 80.3212 256.532 81.7646 259.243 83.8396C261.954 85.9145 263.4 84.4711 265.388 83.5689C267.376 82.6668 268.913 82.9374 269.726 84.2004C270.63 85.4634 270.539 90.6958 270.449 92.2294C270.359 93.7631 269.455 92.3197 267.286 93.4022C265.208 94.4848 268.461 96.7402 269.726 98.0032C270.991 99.2662 269.003 100.71 267.467 100.349C265.931 99.9879 266.021 101.792 264.665 102.424C263.31 103.145 263.852 103.145 264.756 103.687C265.659 104.318 263.852 104.589 262.135 103.236C260.418 101.882 260.418 105.311 259.785 106.122C259.243 106.754 257.978 107.656 257.255 108.648C257.797 108.739 258.34 108.919 259.153 109.009C260.689 109.19 260.147 109.821 261.593 111.445C263.129 113.069 261.774 113.249 260.96 113.881C260.147 114.603 261.774 115.054 263.4 115.054C264.304 115.054 265.027 115.234 265.569 115.505C265.84 115.054 266.382 114.783 267.376 114.603C268.642 114.422 269.455 114.151 269.997 113.881C268.732 112.708 267.286 111.535 266.202 110.904C264.214 109.911 268.099 107.295 269.726 106.122C271.353 104.95 269.003 104.679 268.551 103.867C268.009 103.055 268.822 101.792 269.997 101.251C271.172 100.71 270.268 99.1759 271.353 98.5444C272.437 97.8227 273.341 99.1759 275.148 100.168C276.956 101.161 276.504 99.3564 278.13 98.1836C279.757 97.0108 278.763 95.9282 279.124 94.6652C279.486 93.4022 280.932 90.5154 281.384 89.2524C281.926 88.0796 280.661 86.2753 280.751 85.0123C280.841 83.7493 281.203 82.5766 280.661 80.231C280.119 77.9756 276.684 73.4649 276.684 72.8334C276.684 72.1117 276.413 71.5704 275.871 70.6683C275.239 69.7662 272.799 69.2249 273.341 68.6836C273.883 68.1423 268.822 65.6163 267.828 65.2555C266.834 64.8946 264.756 64.624 265.569 65.3457C266.292 66.0674 266.021 67.4206 266.111 67.7815C266.202 68.1423 264.033 67.2402 263.762 66.4283C263.491 65.6163 263.129 65.7968 262.858 66.2478C262.497 66.6989 261.412 66.0674 260.508 65.0751C259.605 64.0827 258.43 64.1729 255.719 63.1805C253.008 62.2784 256.442 61.3763 256.713 60.835C257.074 60.2035 258.068 59.7524 257.978 58.7601C257.888 57.8579 257.888 57.5873 258.611 56.5047C259.334 55.4222 259.062 55.4221 258.882 54.52C258.701 53.7081 259.334 52.0842 260.418 50.731C261.502 49.3778 264.936 49.3778 266.382 49.1072C267.828 48.8365 271.805 49.0169 273.431 49.1072C275.058 49.1974 273.522 48.3854 275.058 48.6561C276.594 49.0169 277.769 48.3854 280.028 48.9267C282.287 49.468 281.474 49.6485 282.107 50.6408C282.649 51.6332 283.191 50.8212 283.553 50.1897C284.004 49.5582 285.27 49.3778 287.71 50.0995C290.15 50.8212 290.15 50.0995 288.432 49.9191C286.625 49.6484 286.716 49.1974 284.908 48.4757C283.101 47.7539 284.998 47.2127 286.354 46.1301C287.71 44.9573 285.541 45.0475 285.27 43.6943C284.998 42.3411 285.541 42.5215 287.167 42.3411C288.794 42.1607 289.155 41.89 289.607 42.1607C290.059 42.4313 291.324 43.0628 291.324 42.1607C291.324 41.2585 291.686 41.7096 292.318 42.0705C292.951 42.4313 294.758 44.9573 296.295 46.4007C297.921 47.8442 296.204 45.4084 297.018 44.0552C297.831 42.702 299.186 43.2433 298.192 41.9803C297.198 40.8075 297.831 39.7249 300.271 39.9053C302.711 40.0857 302.349 40.8977 300.994 41.0781C299.729 41.2585 299.729 41.6194 301.717 44.2356C303.705 46.8518 302.801 45.679 301.717 45.5888C300.632 45.4986 301.084 47.6637 300.271 48.8365C299.458 50.0093 299.458 49.8289 300.09 50.8212C300.723 51.8136 300.452 51.994 298.735 53.257C296.927 54.52 297.741 53.7983 298.825 54.9711C299.909 56.1439 298.283 55.4221 298.735 57.1362C299.186 58.8503 311.567 70.4879 313.103 72.0215C314.64 73.4649 316.628 74.2769 317.26 73.3747C317.893 72.4726 317.17 71.2998 315.453 69.4955C313.736 67.6913 315.724 67.6912 317.803 68.0521C319.881 68.5032 316.718 66.5185 315.905 64.5338C315.182 62.4588 316.628 63.4512 318.435 63.361C320.333 63.2707 316.447 61.2861 314.549 59.6622C312.651 57.9481 314.73 57.5873 316.086 58.7601C317.351 59.9328 317.622 58.6698 315.453 57.9481C313.374 57.2264 312.742 56.3243 311.296 54.9711C309.85 53.6179 309.308 54.7906 307.952 53.4374C306.597 52.0842 306.687 50.1897 305.693 48.9267C304.699 47.6637 305.332 47.2127 306.597 47.9344C307.862 48.6561 308.766 47.3931 309.308 46.491C309.85 45.5888 311.296 48.9267 311.386 47.7539C311.567 46.5812 313.013 46.4007 314.64 45.679C316.266 44.9573 318.164 47.6637 320.423 48.6561C322.592 49.6484 320.514 46.5812 321.146 44.5965C321.869 42.6117 321.688 43.2432 324.309 41.7096C327.02 40.176 325.665 40.9879 325.213 39.9955C324.761 39.0032 327.111 40.3564 329.912 40.7173C332.623 41.0781 331.539 39.9053 331.448 39.6347C331.358 39.4543 327.472 38.5521 324.851 37.5598C322.14 36.5674 321.688 36.5674 317.26 35.5751C312.742 34.5827 315.272 34.2218 317.531 33.7708C319.791 33.3197 321.779 33.9512 323.496 33.4099C325.122 32.7784 321.056 32.5078 319.971 31.2448C318.887 29.9818 320.875 30.072 322.592 31.0644C324.309 32.0567 325.755 32.5078 326.839 32.3273C327.924 32.0567 327.924 31.9665 330.002 32.5078C332.081 33.0491 337.865 34.7631 340.395 35.0338C342.202 35.2142 340.214 34.0414 338.045 33.0491Z" fill="white" stroke="#0070C1" stroke-width="0.2835" stroke-miterlimit="10"/>
</svg>
