<svg width="89" height="48" viewBox="0 0 89 48" fill="none" xmlns="http://www.w3.org/2000/svg">
<path d="M68.6022 46.5487C69.2348 45.1955 71.3133 44.2934 70.6807 43.4814C70.0481 42.6695 68.6926 41.7674 69.054 40.0533C69.4155 38.3392 70.5903 38.0686 69.9577 36.986C69.3251 35.9034 68.9637 35.6328 69.2348 34.7307C69.5059 33.8285 70.6807 31.6634 68.6926 32.5655C66.7044 33.4677 65.4393 33.7383 64.9874 34.0992C64.4452 34.46 63.2704 34.0992 62.9993 34.46C62.7282 34.9111 62.3667 34.46 62.2763 33.0166C62.186 31.5732 64.897 30.22 62.5474 30.671C60.1978 31.1221 58.4808 31.483 59.3845 30.5808C60.1075 29.8591 79.8983 12.8086 88.7545 5.05024C87.4894 4.1481 87.0375 4.32855 84.959 4.41876C82.7902 4.50897 80.7117 3.69704 78.4524 3.33618C76.1932 2.97532 73.1207 2.88511 72.3977 3.24596C71.6747 3.60682 70.4999 2.70467 70.6807 2.2536C70.8614 1.80253 69.1444 1.26126 68.6022 1.62212C68.06 1.98298 66.8852 2.7949 67.2466 2.07319C67.6081 1.35148 67.8792 0.810199 66.9755 1.26127C66.0718 1.71234 64.3548 2.70469 64.3548 2.07319C64.3548 1.44169 66.0718 0.900391 64.9874 0.900391C63.903 0.900391 63.6319 1.26126 62.0956 1.62212C60.5593 1.98298 57.1253 1.89277 56.2216 2.61448C55.3179 3.33619 54.8661 3.69703 52.8779 3.60681C50.8898 3.5166 49.1728 3.78725 48.4498 4.1481C47.8172 4.50896 41.6721 7.2154 39.3225 7.12518L34.9848 7.57625C34.9848 7.57625 33.6293 8.83924 34.533 9.74138C35.3463 10.6435 32.9063 12.0869 34.7137 12.1771C36.5211 12.2674 38.1477 11.9065 37.4248 12.6282C36.7018 13.3499 40.2262 12.8989 39.0514 13.801C37.8766 14.7032 33.9004 15.6053 32.2737 15.3346C30.7374 15.064 29.4723 14.6129 30.2856 13.9814C31.0989 13.3499 30.4663 12.9891 28.5686 13.5304C26.5805 14.0716 26.3997 13.801 24.2309 14.1619C22.062 14.5227 17.0917 16.2368 18.9894 16.327C20.8872 16.4172 22.3331 16.5074 20.1642 17.3194C17.9954 18.1313 17.905 18.5824 20.345 18.7628C22.7849 18.9432 25.4057 19.0334 27.3034 18.5823C29.2012 18.1313 31.2797 16.8683 30.4663 18.3117C29.653 19.6649 29.5626 19.8453 26.8516 21.1985C24.1405 22.5518 22.1524 22.4616 20.8872 22.7322C19.5317 22.9126 17.5435 22.4616 15.9169 23.7246C14.2902 24.9876 11.1273 25.2582 9.50066 25.9799C7.87401 26.7016 7.3318 28.0548 8.32586 28.5961C9.31992 29.1374 10.8562 29.1374 10.2236 29.5885C9.59103 30.0395 6.157 29.3178 6.157 30.671C6.157 32.0242 8.14512 31.934 9.50066 31.2123C10.8562 30.4906 15.0132 28.2353 13.1154 29.8591C11.2177 31.5732 6.69921 34.9111 6.157 35.1817C5.61478 35.4524 7.51254 35.723 8.77771 35.0013C9.95251 34.2796 10.8562 34.0992 11.0369 34.6405C11.2177 35.1817 11.5792 34.6404 11.9406 35.1817C12.3021 35.723 11.7599 36.5349 12.3925 36.0839C13.0251 35.6328 15.7361 34.1894 15.7361 34.7307C15.8265 35.1817 19.0798 34.8209 17.3628 35.8132C15.5554 36.8056 13.4769 38.5196 12.754 38.8805C12.031 39.2414 9.6814 39.6022 8.77771 40.2337C7.96438 40.8652 6.4281 41.0456 4.71109 41.5869C2.99407 42.1282 1.63853 42.3989 0.734839 43.1206C-0.0784847 43.8423 0.192621 44.7444 1.54816 43.9325C2.9037 43.2108 5.34367 42.3086 6.4281 42.1282C7.51254 41.9478 8.95844 41.2261 10.4044 40.9554C11.7599 40.5946 14.8324 39.6924 15.1036 39.3316C15.465 38.9707 16.2784 37.0762 16.8206 37.7077C17.3628 38.249 18.4472 37.7979 19.8931 37.1664C21.339 36.5349 25.4057 35.2719 25.9479 34.8209C26.5805 34.46 25.6768 34.6404 25.3153 34.3698C24.9538 34.0992 26.219 33.2872 24.5923 33.5579C22.9657 33.7383 21.9716 33.4677 22.9657 33.0166C23.9597 32.6557 27.4842 31.483 27.936 32.2949C28.2975 33.1068 28.5686 33.0166 29.7434 32.4753C30.9182 32.0242 36.7922 29.0472 38.1477 28.4157C39.5033 27.7842 40.3166 27.9646 41.1299 27.9646C41.9432 27.9646 44.4736 26.431 43.7506 27.5135C43.0277 28.5059 43.841 29.1374 42.3951 29.408C40.9492 29.5885 38.3285 29.1374 36.25 30.4906C34.1715 31.8438 29.3819 34.5502 31.6411 34.1894C33.9004 33.8285 38.9611 31.3025 39.5936 31.6634C40.2262 32.0242 42.3047 31.0319 43.2084 29.9493C44.1121 28.8668 46.3713 27.5135 46.7328 28.2353C47.0943 28.957 47.7269 29.1374 48.0884 28.7766C48.4498 28.5059 48.7209 28.145 48.8113 29.3178C48.9017 30.5808 48.1787 31.2123 49.4439 30.5808C50.7091 29.9493 52.5164 28.8667 51.9742 29.7689C51.5224 30.5808 49.9861 31.3025 51.0705 32.0242C52.155 32.7459 53.7816 31.483 55.1372 31.3928C56.4927 31.3928 57.2157 31.3025 56.8542 31.7536C56.4927 32.2047 57.4868 32.8362 58.4808 32.5655C59.4749 32.2047 61.1919 31.3927 60.5593 32.2047C59.9267 33.0166 59.9267 33.5579 60.6497 34.5502C61.3726 35.6328 61.9149 36.4447 62.9089 36.2643C63.903 35.9937 63.3608 36.0839 63.2704 35.4524C63.18 34.7307 62.7282 34.7307 63.4511 34.46C64.2645 34.1894 64.1741 35.0915 64.3548 35.8132C64.4452 36.5349 65.1682 36.1741 66.0718 35.4524C66.9755 34.7307 68.2407 33.4677 68.06 34.1894C67.8792 34.8209 66.1622 36.5349 66.8852 36.6252C67.6081 36.7154 68.9637 36.1741 68.5118 37.0762C68.06 37.8882 66.7044 38.9707 66.7044 40.2337C66.7044 41.4967 67.337 42.7597 68.2407 43.3912C69.2348 44.0227 68.06 44.9249 67.1563 45.7368C66.7044 46.1878 66.6141 46.6389 66.5237 47.09C67.4274 47.4508 68.2407 47.4508 68.6022 46.5487Z" fill="white" stroke="#0070C1" stroke-width="0.2835" stroke-miterlimit="10"/>
</svg>
